<?xml version="1.0" encoding="UTF-8"?>
<svg xmlns="http://www.w3.org/2000/svg" viewBox="0 0 684.89 318.51">
  <defs>
    <style>
      .cls-1 {
        fill: #d46b75;
      }

      .cls-2 {
        isolation: isolate;
      }

      .cls-3 {
        fill: #ffd901;
      }

      .cls-4 {
        mix-blend-mode: multiply;
        opacity: .47;
      }

      .cls-4, .cls-5 {
        fill: none;
      }

      .cls-6 {
        fill: #7cbe92;
      }

      .cls-7 {
        fill: #524c9a;
      }

      .cls-8 {
        fill: #92d3f1;
      }

      .cls-9 {
        fill: #4888c7;
      }

      .cls-10 {
        fill: #f19106;
      }
    </style>
  </defs>
  <g class="cls-2">
    <g id="Capa_2" data-name="Capa 2">
      <g id="Capa_1-2" data-name="Capa 1">
        <g>
          <path class="cls-7" d="M440.66,25.02c-12.03,7.64-23.17,16.91-33.04,27.66l-65.19,64.54-.26-.26-42.51,42.57h.01s-69.92,69.23-69.92,69.23l-.2,.2c-3.6,3.63-7.43,6.95-11.46,9.95l31.01,51.78c8.18-5.63,15.91-12.06,23.07-19.27l69.16-68.47,.95-.94h0s43.19-41.88,43.19-41.88l-.45-.45,65.99-65.33,.53-.58c6.15-6.76,13.06-12.61,20.51-17.44l-31.41-51.31Z"/>
          <path class="cls-9" d="M525.64,60.16c48.44,0,88.87,34.94,97.42,80.94l59.74-7.73c-5.31-32.7-20.67-62.84-44.55-86.72C608.17,16.57,568.18,0,525.64,0c-30.07,0-59.53,8.86-84.97,25.02l31.41,51.31c16.08-10.44,34.67-16.17,53.57-16.17Z"/>
          <polygon class="cls-5" points="341.33 202.95 342.3 202.02 342.29 202.01 341.33 202.95"/>
          <path class="cls-3" d="M276.51,51.52c-14.66-15.96-32.08-28.56-51.76-37.46-13.74-6.21-28.1-10.37-42.89-12.47l-7,59.81c22.02,3.53,42.47,14.47,57.68,31.18l.49,.54,109.27,108.89,43.19-41.89-108.98-108.61Z"/>
          <path class="cls-8" d="M623.06,141.1c1.09,5.89,1.67,11.96,1.67,18.16,0,54.64-44.45,99.09-99.09,99.09-5.67,0-11.25-.46-16.71-1.35l-5.88,59.95c7.42,1.02,14.96,1.55,22.59,1.55,42.54,0,82.53-16.57,112.61-46.64,30.08-30.08,46.64-70.07,46.64-112.61,0-8.76-.71-17.41-2.09-25.88l-59.74,7.73Z"/>
          <path class="cls-1" d="M159.25,258.35c-50.93,0-93.01-38.63-98.48-88.13L1.18,178.82c4.28,35.13,20.04,67.62,45.46,93.04,30.08,30.08,70.07,46.64,112.61,46.64,32.53,0,63.57-9.74,89.85-27.82l-31.01-51.78c-16.97,12.62-37.39,19.45-58.84,19.45Z"/>
          <path class="cls-10" d="M60.16,159.25c0-54.64,44.45-99.09,99.09-99.09,5.26,0,10.47,.42,15.6,1.25L181.86,1.6c-7.43-1.05-14.97-1.6-22.6-1.6C116.72,0,76.72,16.57,46.64,46.64,16.57,76.72,0,116.72,0,159.25c0,6.59,.4,13.13,1.18,19.57l59.59-8.6c-.4-3.6-.61-7.26-.61-10.97Z"/>
          <path class="cls-4" d="M276.51,51.52c-14.66-15.96-32.08-28.56-51.76-37.46-13.74-6.21-28.1-10.37-42.89-12.47l-7,59.81c22.02,3.53,42.47,14.47,57.68,31.18l.49,.54,66.63,66.4,42.51-42.57-65.66-65.43Z"/>
          <path class="cls-4" d="M385.49,160.13l-43.19,41.89,71.62,71.37,.24,.23c24.32,23.71,55.29,38.69,88.9,43.33l5.88-59.95c-19.96-3.25-38.24-12.32-52.67-26.35l-70.77-70.52Z"/>
          <path class="cls-6" d="M385.49,160.13l-43.19,41.89,71.62,71.37,.24,.23c24.32,23.71,55.29,38.69,88.9,43.33l5.88-59.95c-19.96-3.25-38.24-12.32-52.67-26.35l-70.77-70.52Z"/>
        </g>
      </g>
    </g>
  </g>
</svg>